<svg xmlns="http://www.w3.org/2000/svg" viewBox="0 0 360 360" role="img" aria-labelledby="t d">
<title id="t">磨飯男 IP 啟動畫面插畫</title>
<desc id="d">以正式男 IP 特徵重新繪製，藍色葡萄狀頭髮、圓框眼鏡、白藍制服及紫色斜孭袋，手持平板並揮手。</desc>
<defs>
  <linearGradient id="skin" x1="0" y1="0" x2="1" y2="1"><stop stop-color="#ffd5ad"/><stop offset="1" stop-color="#f3a66f"/></linearGradient>
  <linearGradient id="hair" x1="0" y1="0" x2="1" y2="1"><stop stop-color="#3c79ff"/><stop offset="1" stop-color="#1243b9"/></linearGradient>
  <linearGradient id="shirt" x1="0" y1="0" x2="0" y2="1"><stop stop-color="#fffdf7"/><stop offset="1" stop-color="#f3f6ff"/></linearGradient>
  <filter id="shadow" x="-30%" y="-30%" width="160%" height="160%"><feDropShadow dx="0" dy="10" stdDeviation="10" flood-color="#163568" flood-opacity=".16"/></filter>
</defs>
<g filter="url(#shadow)">
  <ellipse cx="180" cy="326" rx="105" ry="18" fill="#dce7f9"/>
  <path d="M101 223c12-38 43-58 79-58s68 21 80 58v73H101z" fill="url(#shirt)"/>
  <path d="M116 222h128v16H116z" fill="#2358d8"/>
  <path d="M128 238l50 65h-18l-48-62z" fill="#6436aa"/>
  <path d="M197 238h49v68h-49z" fill="#205acb"/>
  <rect x="219" y="245" width="64" height="82" rx="12" fill="#2b365c"/>
  <rect x="227" y="253" width="48" height="54" rx="7" fill="#e9f1ff"/>
  <circle cx="157" cy="151" r="74" fill="url(#skin)"/>
  <ellipse cx="94" cy="156" rx="18" ry="26" fill="#f1a06f"/>
  <ellipse cx="220" cy="156" rx="18" ry="26" fill="#f1a06f"/>
  <g fill="url(#hair)">
    <circle cx="108" cy="100" r="28"/><circle cx="136" cy="83" r="30"/><circle cx="169" cy="78" r="32"/>
    <circle cx="202" cy="88" r="30"/><circle cx="224" cy="112" r="28"/><circle cx="112" cy="126" r="30"/>
    <circle cx="143" cy="116" r="33"/><circle cx="178" cy="112" r="33"/><circle cx="211" cy="125" r="30"/>
    <path d="M166 47c13-24 30-34 47-35-5 17-4 32 4 44z"/>
  </g>
  <g fill="none" stroke="#1745a3" stroke-width="8">
    <circle cx="132" cy="151" r="27"/><circle cx="185" cy="151" r="27"/><path d="M159 151h-1M104 146l-18-7M213 146l18-7"/>
  </g>
  <circle cx="133" cy="151" r="10" fill="#152953"/><circle cx="186" cy="151" r="10" fill="#152953"/>
  <circle cx="129" cy="146" r="3" fill="#fff"/><circle cx="182" cy="146" r="3" fill="#fff"/>
  <path d="M151 174c9 8 21 8 30 0" fill="none" stroke="#8d3c37" stroke-width="5" stroke-linecap="round"/>
  <path d="M111 243c-22 11-32 31-38 48" fill="none" stroke="url(#skin)" stroke-width="23" stroke-linecap="round"/>
  <path d="M73 290c-8-18-7-34-4-45" fill="none" stroke="url(#skin)" stroke-width="17" stroke-linecap="round"/>
  <path d="M237 238c19-4 31-15 39-31" fill="none" stroke="url(#skin)" stroke-width="21" stroke-linecap="round"/>
  <path d="M275 210l8-16M275 210l16-2M275 210l5 17" stroke="#f3a66f" stroke-width="8" stroke-linecap="round"/>
  <circle cx="176" cy="240" r="11" fill="#7c4bc7"/><path d="M171 234l10 12M181 234l-10 12" stroke="#fff" stroke-width="2"/>
</g>
</svg>